<svg width="82" height="74" viewBox="0 0 82 74" fill="none" xmlns="http://www.w3.org/2000/svg">
<path d="M7.55834 11.6569C6.80232 13.888 6.84473 16.1282 7.41306 18.0125C7.1278 17.8174 6.85362 17.5892 6.58683 17.3327C5.65457 16.4363 4.89774 15.2802 4.13666 14.1175C4.11037 14.0774 4.08407 14.0372 4.05776 13.997C3.75758 13.5387 3.19393 13.3293 2.66731 13.4804C2.1407 13.6315 1.77385 14.1079 1.76235 14.6557C1.66145 19.4625 2.14701 24.0145 4.30085 27.7626C6.36477 31.3543 9.85979 34.0412 15.3742 35.5985C15.033 40.3238 14.7174 47.0252 15.9604 53.3363C17.2982 60.1289 20.5013 66.7365 27.6863 69.7923C34.559 72.7153 44.226 73.765 52.435 70.4288C60.4353 67.1774 66.8471 59.8416 68.0066 46.6124C69.642 46.9674 71.5033 46.7145 73.0245 45.8462C74.1126 45.2252 75.0574 44.2737 75.6241 42.9725C76.1908 41.6717 76.3436 40.105 75.9896 38.3077C75.7435 37.0578 75.3423 36.0172 74.7991 35.1802C75.3648 29.5349 76.3751 26.2693 77.3354 24.3168C78.1953 22.5686 79.0257 21.8361 79.6318 21.3015C79.703 21.2387 79.7711 21.1786 79.8358 21.1199C80.1727 20.8144 80.3171 20.35 80.2127 19.9073C80.1084 19.4645 79.7718 19.1135 79.3339 18.9905C76.6152 18.2273 74.5326 18.4973 73.0782 19.1459C71.5452 11.4574 67.7209 7.18824 63.7868 4.86455C59.5925 2.38713 55.4188 2.20582 54.1672 2.18413C52.9584 2.16318 49.2931 2.14073 45.1434 3.07296C41.0133 4.00078 36.2365 5.91146 32.9838 9.88289C30.3623 13.0835 26.234 16.4748 21.9531 17.5361C19.8444 18.0589 17.7343 18.0098 15.7243 17.1385C13.7101 16.2654 11.6741 14.5135 9.81396 11.4147C9.56332 10.9972 9.093 10.7632 8.60878 10.8152C8.12457 10.8672 7.71463 11.1956 7.55834 11.6569Z" stroke="#F8F8F8" stroke-width="2.5" stroke-linecap="round" stroke-linejoin="round"/>
<path d="M40.2759 25.5446C48.3746 17.5293 59.1839 15.8786 67.2663 26.6678C66.3487 28.4279 64.3075 30.8187 66.3705 35.7706C68.0944 34.3205 71.2598 33.4942 73.1313 35.9421C73.6751 36.6533 74.1096 37.6408 74.3679 38.9697C75.6059 45.3404 69.5181 47.0623 66.5848 45.2707C65.1641 73.0239 41.4939 74.7085 28.3932 69.0625C15.2925 63.4164 16.3519 44.578 17.0666 35.0759C17.2859 32.1591 17.5434 29.5495 17.7866 27.5527C27.101 32.1305 33.0702 32.6761 40.2759 25.5446Z" fill="#FAF2E8"/>
<path d="M39.9862 25.5446C48.0849 17.5293 58.8942 15.8786 66.9766 26.6678C66.059 28.4279 64.0178 30.8187 66.0808 35.7706C65.5031 36.2565 65.0873 36.8124 64.9363 37.3387C63.7918 36.4641 62.5588 31.467 63.1015 26.4073C62.7216 26.1468 59.5197 22.219 54.4999 22.0504C43.9596 21.6962 44.5228 29.0583 32.6095 29.9757C35.771 29.5448 36.7416 28.7558 39.9862 25.5446Z" fill="#FAD7AA"/>
<path d="M55.6458 67.3431C63.8785 57.832 64.304 53.8734 65.7754 44.3138C65.7754 44.3138 66.333 45.0481 66.7933 45.0481C65.8717 51.5086 65.0465 61.1026 55.6458 67.3431Z" fill="#FAD7AA"/>
<path fill-rule="evenodd" clip-rule="evenodd" d="M53.7702 18.1873C58.6845 18.1187 63.5484 20.5036 67.6664 26.0008C67.7817 26.1547 67.7985 26.3611 67.7096 26.5317C67.5846 26.7716 67.4478 27.0103 67.3076 27.255C66.8916 27.9812 66.4454 28.7601 66.1851 29.7788C65.8767 30.9858 65.8418 32.5302 66.5971 34.6092C67.465 34.0283 68.5502 33.6018 69.6626 33.5284C71.0456 33.4372 72.4768 33.8956 73.5285 35.2711C74.13 36.0579 74.5896 37.1223 74.8587 38.507C75.1839 40.1805 75.0346 41.5871 74.5459 42.724C74.057 43.8613 73.2421 44.6965 72.2909 45.2466C70.6704 46.1839 68.6224 46.3102 67.0395 45.6848C66.1341 59.2444 59.85 66.5779 52.0594 69.7864C44.1758 73.0331 34.8405 72.0183 28.1953 69.1544C21.4256 66.2369 18.3559 59.9198 17.0583 53.2434C15.7606 46.5669 16.2107 39.4204 16.568 34.6711C16.7878 31.7481 17.0459 29.1306 17.2902 27.125C17.3098 26.9643 17.406 26.8229 17.5484 26.7458C17.6908 26.6687 17.8618 26.6653 18.0071 26.7367C22.6478 29.0175 26.3722 30.249 29.7963 30.073C33.193 29.8985 36.3772 28.3324 39.9241 24.822C44.034 20.7545 48.8777 18.2556 53.7702 18.1873ZM66.0694 45.1731C65.9055 45.0614 65.6897 44.8894 65.4838 44.6393C65.3083 44.4262 65.3388 44.1111 65.552 43.9355C65.7652 43.76 66.0803 43.7905 66.2558 44.0037C66.4581 44.2494 66.6581 44.3666 66.791 44.4445C66.8107 44.456 66.8288 44.4666 66.8453 44.4767C68.1418 45.2686 70.2004 45.3005 71.7902 44.381C72.5729 43.9283 73.2311 43.2504 73.6272 42.3291C74.0234 41.4074 74.1708 40.2097 73.877 38.6978C73.6296 37.4247 73.22 36.5141 72.7341 35.8785C71.9142 34.8062 70.827 34.4538 69.7284 34.5263C68.6085 34.6001 67.4847 35.1194 66.6923 35.7859C65.982 36.3834 65.6524 36.997 65.6638 37.4122C65.6715 37.6882 65.4539 37.9181 65.1778 37.9257C64.9018 37.9334 64.6718 37.7158 64.6642 37.4397C64.6429 36.6649 65.1241 35.8905 65.7758 35.2655C64.8393 32.8625 64.8366 31.0166 65.2162 29.5312C65.5138 28.3666 66.0566 27.4213 66.4827 26.679C66.5494 26.5628 66.6132 26.4517 66.6728 26.3454C62.7532 21.238 58.2464 19.1249 53.7842 19.1872C49.2268 19.2508 44.6164 21.585 40.6276 25.5328C36.9688 29.1538 33.5655 30.8806 29.8476 31.0717C26.3253 31.2527 22.5964 30.0493 18.2004 27.9422C17.9833 29.8252 17.7593 32.1642 17.5651 34.7461C17.2077 39.499 16.7708 46.5228 18.0399 53.0526C19.309 59.5823 22.26 65.5076 28.5911 68.2361C35.0466 71.0182 44.0968 71.9841 51.6786 68.8617C59.1555 65.7825 65.2946 58.6903 66.0694 45.1731Z" fill="black"/>
<path d="M40.2269 25.1023C48.3257 17.087 59.135 15.4362 67.2173 26.2255C66.2998 27.9855 64.2585 30.3763 66.3215 35.3282C68.0454 33.8782 71.2108 33.0519 73.0824 35.4997C74.1961 23.4672 77.2787 21.2908 78.496 20.1721C74.7066 19.0941 72.5664 20.3349 71.7614 21.2705C69.4249 4.10363 56.2894 3.45276 53.9726 3.41208C51.6557 3.3714 39.9635 3.32877 34.0436 10.6531C28.6915 17.2748 16.9065 25.1023 9.16668 12.0362C8.12606 15.1482 8.8329 18.2195 10.2269 20.0094C6.88911 20.0094 5.02381 16.9991 3.51195 14.66C3.31561 24.1384 5.45002 31.7451 17.0176 34.6336C17.237 31.7168 17.4944 29.1071 17.7376 27.1104C27.052 31.6881 33.0213 32.2337 40.2269 25.1023Z" fill="#C69C6D"/>
<path d="M11.6759 22.4323C13.6895 24.3431 15.735 25.9369 17.7376 27.1121C17.4944 29.1089 17.237 31.7186 17.0176 34.6353C5.45002 31.7468 3.31561 24.1402 3.51195 14.6618C4.26972 20.4302 9.52448 32.2497 13.1154 29.3475C14.8313 27.9607 12.9877 25.1041 11.6759 22.4323Z" fill="#8C6239"/>
<path fill-rule="evenodd" clip-rule="evenodd" d="M45.2482 3.78318C49.2593 2.87008 52.8087 2.89157 53.9813 2.91216C55.1715 2.93306 59.1393 3.1095 63.1164 5.48995C66.9761 7.80012 70.7871 12.152 72.1192 20.2843C73.333 19.4285 75.4704 18.7916 78.6329 19.6912C78.807 19.7407 78.9407 19.8805 78.9825 20.0567C79.0243 20.2328 78.9677 20.4178 78.8344 20.5403C78.7725 20.5972 78.7065 20.6562 78.6367 20.7186C78.0209 21.269 77.1133 22.0803 76.2002 23.9616C75.1735 26.0768 74.1339 29.5644 73.5802 35.5458C73.5612 35.7508 73.4185 35.9233 73.2206 35.9802C73.0228 36.0372 72.8102 35.967 72.6852 35.8034C71.8652 34.7311 70.778 34.3787 69.6795 34.4512C68.5595 34.5251 67.4358 35.0443 66.6433 35.7109C66.5215 35.8133 66.3581 35.8517 66.2034 35.8141C66.0487 35.7765 65.9212 35.6675 65.8599 35.5205C64.7913 32.9554 64.7705 31.0088 65.1673 29.4561C65.4649 28.2915 66.0076 27.3462 66.4338 26.6039C66.5005 26.4877 66.5643 26.3766 66.6239 26.2703C62.7042 21.1629 58.1974 19.0498 53.7352 19.1121C49.1778 19.1757 44.5675 21.5099 40.5786 25.4577C36.9199 29.0787 33.5166 30.8055 29.7987 30.9966C26.2764 31.1776 22.5474 29.9742 18.1515 27.8671C17.9343 29.7501 17.7104 32.0892 17.5162 34.671C17.5051 34.818 17.4298 34.9526 17.3103 35.0389C17.1909 35.1252 17.0394 35.1544 16.8965 35.1187C11.0112 33.6491 7.45535 30.9567 5.41836 27.3646C3.39563 23.7977 2.91333 19.4153 3.01205 14.6497C3.0166 14.43 3.16404 14.239 3.37542 14.179C3.58681 14.119 3.81258 14.2041 3.93186 14.3886C3.96336 14.4374 3.99495 14.4863 4.02663 14.5353C4.76386 15.677 5.55181 16.8972 6.53361 17.8537C7.3113 18.6114 8.18971 19.1825 9.23526 19.4062C8.15838 17.4533 7.75837 14.6711 8.69248 11.8776C8.75454 11.692 8.91916 11.5597 9.11375 11.539C9.30834 11.5183 9.49713 11.613 9.59686 11.7814C11.4924 14.9813 13.6084 16.8574 15.7674 17.8057C17.9242 18.7531 20.1738 18.7966 22.3787 18.2426C26.8149 17.1281 31.014 13.6059 33.6547 10.3388C36.7154 6.55203 41.2445 4.69461 45.2482 3.78318ZM17.9748 26.6698C22.6077 28.9453 26.3274 30.1737 29.7474 29.9979C33.1441 29.8234 36.3283 28.2573 39.8752 24.7469C43.9851 20.6794 48.8287 18.1805 53.7213 18.1122C58.6355 18.0436 63.4995 20.4285 67.6175 25.9257C67.7328 26.0796 67.7496 26.286 67.6607 26.4566C67.5356 26.6965 67.3989 26.9352 67.2587 27.1799C66.8427 27.9061 66.3965 28.685 66.1361 29.7037C65.8277 30.9107 65.7928 32.4552 66.5482 34.5341C67.416 33.9532 68.5013 33.5267 69.6136 33.4534C70.6757 33.3833 71.7663 33.6374 72.6915 34.3821C73.2728 28.97 74.2695 25.649 75.3005 23.5249C76.0702 21.9392 76.8558 21.0308 77.468 20.4362C74.411 19.8235 72.745 20.8939 72.1404 21.5966C72.0121 21.7457 71.8082 21.8058 71.6196 21.75C71.4309 21.6941 71.2925 21.5329 71.266 21.3379C70.1171 12.8971 66.3313 8.57962 62.6028 6.34799C58.8489 4.10112 55.0905 3.93179 53.9638 3.91201C52.8195 3.89191 49.3644 3.87175 45.4702 4.75824C41.5686 5.6464 37.2917 7.42981 34.4324 10.9674C31.721 14.322 27.3515 18.0244 22.6223 19.2125C20.2445 19.8099 17.7621 19.7741 15.3652 18.7213C13.2154 17.777 11.1746 16.0322 9.35121 13.2738C8.82677 15.8439 9.49222 18.2523 10.6214 19.7022C10.7388 19.8529 10.76 20.0573 10.6762 20.2289C10.5923 20.4006 10.418 20.5094 10.2269 20.5094C8.38823 20.5094 6.96901 19.6741 5.83577 18.57C5.1395 17.8916 4.53796 17.0983 4.00305 16.3175C4.04881 20.3547 4.62397 23.9366 6.28823 26.8714C8.09728 30.0615 11.233 32.5541 16.5648 33.9991C16.7623 31.4694 16.9866 29.1917 17.2024 27.3737C15.258 26.2006 13.3424 24.7121 11.3307 22.7922C11.1309 22.6016 11.1235 22.2851 11.3141 22.0853C11.5048 21.8855 11.8213 21.8781 12.0211 22.0688C14.0791 24.0329 16.0166 25.5188 17.9748 26.6698Z" fill="black"/>
<path fill-rule="evenodd" clip-rule="evenodd" d="M70.114 37.8483C70.2013 37.8388 70.2882 37.8364 70.3753 37.8408C70.6714 37.856 71 37.9532 71.3767 38.178C71.6138 38.3196 71.9207 38.2421 72.0623 38.005C72.2038 37.7679 72.1263 37.4609 71.8892 37.3194C71.3984 37.0264 70.9132 36.8671 70.4265 36.8422C69.9394 36.8171 69.4823 36.9283 69.0504 37.13C68.2037 37.5256 67.4133 38.2924 66.6117 39.1479C66.4229 39.3494 66.4332 39.6658 66.6347 39.8547C66.8362 40.0435 67.1526 40.0332 67.3414 39.8317C68.0146 39.1132 68.5923 38.5587 69.1414 38.2175C69.9042 39.188 70.0795 40.0226 70.0508 40.6875C70.0229 41.3333 69.8077 41.8482 69.6294 42.2748C69.5962 42.3542 69.5642 42.4305 69.5351 42.5041C69.4332 42.7608 69.5587 43.0514 69.8154 43.1533C70.0721 43.2551 70.3627 43.1296 70.4646 42.8729C70.4859 42.8191 70.512 42.7574 70.5413 42.6883C70.7195 42.2671 71.0136 41.572 71.0499 40.7307C71.0867 39.8777 70.8646 38.8999 70.114 37.8483Z" fill="black"/>
<path d="M27.0672 39.6919C27.0672 40.9916 26.0136 42.0452 24.7139 42.0452C23.4142 42.0452 22.3606 40.9916 22.3606 39.6919C22.3606 38.3923 23.4142 37.3387 24.7139 37.3387C26.0136 37.3387 27.0672 38.3923 27.0672 39.6919Z" fill="black"/>
<path d="M27.0672 39.6919C27.0672 40.9916 26.0136 42.0452 24.7139 42.0452C23.4142 42.0452 22.3606 40.9916 22.3606 39.6919C22.3606 38.3923 23.4142 37.3387 24.7139 37.3387C26.0136 37.3387 27.0672 38.3923 27.0672 39.6919Z" stroke="black"/>
<path d="M46.6885 39.6919C46.6885 40.9916 45.6349 42.0452 44.3352 42.0452C43.0356 42.0452 41.982 40.9916 41.982 39.6919C41.982 38.3923 43.0356 37.3387 44.3352 37.3387C45.6349 37.3387 46.6885 38.3923 46.6885 39.6919Z" fill="black"/>
<path d="M46.6885 39.6919C46.6885 40.9916 45.6349 42.0452 44.3352 42.0452C43.0356 42.0452 41.982 40.9916 41.982 39.6919C41.982 38.3923 43.0356 37.3387 44.3352 37.3387C45.6349 37.3387 46.6885 38.3923 46.6885 39.6919Z" stroke="black"/>
<path fill-rule="evenodd" clip-rule="evenodd" d="M35.3339 50.7376C33.7996 50.9422 32.0658 50.4339 30.0135 49.1471L30.5447 48.2998C32.4993 49.5254 33.9933 49.9075 35.2018 49.7464C36.4006 49.5865 37.4259 48.8773 38.4157 47.6744L39.1879 48.3097C38.1105 49.6191 36.878 50.5317 35.3339 50.7376Z" fill="black"/>
</svg>
